<svg xmlns="http://www.w3.org/2000/svg" xmlns:xlink="http://www.w3.org/1999/xlink" width="140" zoomAndPan="magnify" viewBox="0 0 104.88 44.999999" height="60" preserveAspectRatio="xMidYMid meet" version="1.0"><defs><g/><clipPath id="926bd46203"><path d="M 5 8.339844 L 25.472656 8.339844 L 25.472656 36.808594 L 5 36.808594 Z M 5 8.339844 " clip-rule="nonzero"/></clipPath></defs><g clip-path="url(#926bd46203)"><path fill="#ff914d" d="M 25.4375 25.46875 C 25.425781 25.246094 25.371094 25.03125 25.273438 24.828125 C 25.175781 24.625 25.042969 24.445312 24.875 24.296875 C 24.703125 24.144531 24.511719 24.03125 24.296875 23.957031 C 24.082031 23.882812 23.863281 23.851562 23.632812 23.863281 C 23.40625 23.878906 23.191406 23.933594 22.984375 24.03125 C 22.78125 24.128906 22.605469 24.261719 22.453125 24.433594 C 22.300781 24.601562 22.191406 24.792969 22.117188 25.003906 C 22.042969 25.21875 22.011719 25.4375 22.027344 25.664062 C 22.035156 25.785156 22.035156 25.910156 22.035156 26.035156 C 22.039062 26.296875 22.023438 26.554688 21.992188 26.8125 C 21.960938 27.070312 21.914062 27.328125 21.855469 27.578125 C 21.792969 27.832031 21.714844 28.082031 21.625 28.324219 C 21.535156 28.566406 21.429688 28.804688 21.3125 29.035156 C 21.191406 29.269531 21.058594 29.492188 20.914062 29.707031 C 20.769531 29.921875 20.609375 30.128906 20.441406 30.328125 C 20.269531 30.523438 20.085938 30.710938 19.894531 30.886719 C 19.703125 31.066406 19.5 31.230469 19.289062 31.382812 C 19.074219 31.535156 18.855469 31.671875 18.625 31.800781 C 18.398438 31.925781 18.160156 32.039062 17.917969 32.136719 C 17.675781 32.238281 17.429688 32.320312 17.175781 32.390625 C 16.925781 32.460938 16.667969 32.515625 16.410156 32.558594 C 16.148438 32.597656 15.890625 32.621094 15.628906 32.632812 C 15.367188 32.640625 15.105469 32.636719 14.84375 32.617188 C 14.582031 32.59375 14.324219 32.558594 14.066406 32.507812 C 13.808594 32.457031 13.554688 32.390625 13.304688 32.308594 C 13.058594 32.226562 12.8125 32.132812 12.574219 32.023438 C 12.335938 31.914062 12.109375 31.789062 11.882812 31.652344 C 11.660156 31.515625 11.445312 31.367188 11.242188 31.207031 C 11.035156 31.046875 10.839844 30.871094 10.65625 30.6875 C 10.472656 30.503906 10.296875 30.308594 10.136719 30.105469 C 9.976562 29.898438 9.828125 29.6875 9.691406 29.464844 C 9.554688 29.242188 9.433594 29.011719 9.324219 28.777344 C 9.214844 28.539062 9.121094 28.296875 9.039062 28.050781 C 8.960938 27.804688 8.894531 27.550781 8.847656 27.296875 C 8.796875 27.042969 8.761719 26.785156 8.742188 26.527344 C 8.722656 26.265625 8.71875 26.007812 8.730469 25.75 C 8.742188 25.488281 8.769531 25.230469 8.8125 24.972656 C 8.855469 24.71875 8.910156 24.464844 8.984375 24.214844 C 9.058594 23.964844 9.144531 23.722656 9.246094 23.480469 C 9.347656 23.242188 9.464844 23.011719 9.59375 22.785156 C 9.722656 22.558594 9.863281 22.339844 10.019531 22.132812 C 10.175781 21.921875 10.34375 21.722656 10.523438 21.535156 C 10.703125 21.34375 10.890625 21.164062 11.09375 20.996094 C 11.292969 20.832031 11.503906 20.675781 11.722656 20.53125 C 11.941406 20.390625 12.167969 20.261719 12.402344 20.144531 C 12.636719 20.027344 12.875 19.925781 13.125 19.835938 C 13.371094 19.75 13.621094 19.675781 13.875 19.617188 C 14.132812 19.558594 14.390625 19.515625 14.652344 19.488281 C 14.910156 19.457031 15.171875 19.445312 15.433594 19.445312 C 15.695312 19.449219 15.957031 19.464844 16.21875 19.5 C 16.476562 19.53125 16.734375 19.578125 16.988281 19.640625 C 17.246094 19.707031 17.496094 19.78125 17.738281 19.875 C 17.984375 19.96875 18.222656 20.074219 18.457031 20.191406 C 18.6875 20.3125 18.914062 20.445312 19.128906 20.59375 C 19.347656 20.738281 19.554688 20.898438 19.75 21.066406 C 19.949219 21.238281 20.136719 21.421875 20.3125 21.613281 C 20.488281 21.804688 20.652344 22.007812 20.804688 22.21875 C 20.9375 22.402344 21.097656 22.550781 21.289062 22.671875 C 21.480469 22.789062 21.6875 22.867188 21.910156 22.90625 C 22.136719 22.941406 22.355469 22.9375 22.578125 22.886719 C 22.796875 22.835938 23 22.746094 23.1875 22.617188 C 23.371094 22.484375 23.523438 22.324219 23.644531 22.136719 C 23.761719 21.945312 23.84375 21.738281 23.878906 21.519531 C 23.917969 21.296875 23.910156 21.078125 23.859375 20.859375 C 23.808594 20.640625 23.71875 20.441406 23.589844 20.257812 C 22.867188 19.253906 21.984375 18.410156 20.949219 17.726562 C 19.910156 17.046875 18.785156 16.570312 17.570312 16.300781 L 20.347656 10.71875 C 20.4375 10.542969 20.488281 10.351562 20.5 10.152344 C 20.515625 9.953125 20.488281 9.761719 20.421875 9.570312 C 20.359375 9.382812 20.261719 9.210938 20.128906 9.0625 C 19.996094 8.914062 19.839844 8.792969 19.65625 8.703125 C 19.476562 8.617188 19.285156 8.566406 19.085938 8.550781 C 18.882812 8.539062 18.6875 8.566406 18.496094 8.628906 C 18.304688 8.691406 18.136719 8.792969 17.984375 8.921875 C 17.832031 9.054688 17.710938 9.210938 17.621094 9.386719 L 13.644531 16.210938 L 13.582031 16.222656 L 14.945312 10.945312 C 15.007812 10.753906 15.03125 10.554688 15.015625 10.351562 C 15 10.148438 14.941406 9.957031 14.847656 9.773438 C 14.75 9.59375 14.621094 9.4375 14.464844 9.308594 C 14.304688 9.179688 14.125 9.085938 13.925781 9.03125 C 13.730469 8.972656 13.527344 8.957031 13.324219 8.980469 C 13.117188 9.003906 12.925781 9.066406 12.746094 9.167969 C 12.570312 9.269531 12.417969 9.402344 12.292969 9.566406 C 12.167969 9.726562 12.082031 9.90625 12.03125 10.105469 L 9.496094 17.78125 L 9.496094 12.546875 C 9.507812 12.347656 9.476562 12.148438 9.410156 11.957031 C 9.339844 11.769531 9.238281 11.597656 9.097656 11.449219 C 8.960938 11.300781 8.796875 11.183594 8.613281 11.097656 C 8.425781 11.015625 8.230469 10.96875 8.027344 10.964844 C 7.824219 10.957031 7.625 10.992188 7.433594 11.0625 C 7.242188 11.136719 7.074219 11.242188 6.925781 11.382812 C 6.78125 11.523438 6.664062 11.6875 6.585938 11.875 C 6.503906 12.058594 6.464844 12.253906 6.460938 12.457031 L 6.164062 22.011719 C 6.015625 22.351562 5.882812 22.695312 5.769531 23.050781 C 5.660156 23.402344 5.566406 23.761719 5.496094 24.125 C 5.425781 24.488281 5.371094 24.855469 5.34375 25.222656 C 5.3125 25.589844 5.300781 25.960938 5.3125 26.332031 C 5.324219 26.699219 5.355469 27.070312 5.40625 27.4375 C 5.460938 27.800781 5.53125 28.164062 5.625 28.523438 C 5.71875 28.882812 5.832031 29.234375 5.964844 29.578125 C 6.097656 29.925781 6.25 30.261719 6.417969 30.59375 C 6.589844 30.921875 6.777344 31.242188 6.984375 31.550781 C 7.191406 31.859375 7.414062 32.15625 7.652344 32.4375 C 7.894531 32.722656 8.148438 32.992188 8.417969 33.25 C 8.6875 33.503906 8.972656 33.746094 9.269531 33.96875 C 9.566406 34.195312 9.875 34.402344 10.191406 34.59375 C 10.511719 34.78125 10.84375 34.957031 11.183594 35.109375 C 11.523438 35.265625 11.871094 35.398438 12.222656 35.515625 C 12.578125 35.628906 12.9375 35.726562 13.304688 35.804688 C 13.671875 35.878906 14.039062 35.933594 14.410156 35.972656 C 14.78125 36.007812 15.15625 36.023438 15.527344 36.015625 C 15.902344 36.011719 16.273438 35.984375 16.644531 35.9375 C 17.015625 35.890625 17.382812 35.824219 17.746094 35.738281 C 18.109375 35.652344 18.464844 35.542969 18.816406 35.417969 C 19.167969 35.292969 19.511719 35.148438 19.847656 34.984375 C 20.179688 34.820312 20.503906 34.636719 20.820312 34.4375 C 21.132812 34.238281 21.4375 34.019531 21.726562 33.789062 C 22.015625 33.554688 22.292969 33.304688 22.554688 33.042969 C 22.816406 32.777344 23.0625 32.5 23.296875 32.210938 C 23.527344 31.917969 23.742188 31.617188 23.9375 31.300781 C 24.132812 30.988281 24.3125 30.664062 24.472656 30.328125 C 24.632812 29.996094 24.777344 29.652344 24.898438 29.304688 C 25.019531 28.953125 25.121094 28.597656 25.203125 28.238281 C 25.289062 27.875 25.347656 27.511719 25.390625 27.144531 C 25.433594 26.777344 25.453125 26.40625 25.453125 26.035156 C 25.453125 25.847656 25.449219 25.660156 25.4375 25.46875 Z M 25.4375 25.46875 " fill-opacity="1" fill-rule="nonzero"/></g><path fill="#2b332c" d="M 15.378906 19.988281 C 14.933594 19.988281 14.496094 20.035156 14.0625 20.132812 L 14.855469 21.417969 L 13.289062 29.523438 L 15.378906 31.402344 L 17.472656 29.523438 L 15.90625 21.417969 L 16.699219 20.132812 C 16.265625 20.035156 15.824219 19.988281 15.378906 19.988281 Z M 15.378906 19.988281 " fill-opacity="1" fill-rule="nonzero"/><g fill="#2b332c" fill-opacity="1"><g transform="translate(33.973704, 33.07029)"><g><path d="M 4.421875 0 L 1.28125 0 L 1.28125 -11.8125 L 8.25 -11.8125 L 8.25 -9.25 L 4.421875 -9.25 L 4.421875 -7 L 7.953125 -7 L 7.953125 -4.4375 L 4.421875 -4.4375 Z M 4.421875 0 "/></g></g></g><g fill="#2b332c" fill-opacity="1"><g transform="translate(42.889619, 33.07029)"><g><path d="M 4.265625 0 L 1.109375 0 L 1.109375 -9.15625 L 4.265625 -9.15625 Z M 1.03125 -11.4375 C 1.03125 -11.90625 1.160156 -12.253906 1.421875 -12.484375 C 1.679688 -12.722656 2.109375 -12.84375 2.703125 -12.84375 C 3.285156 -12.84375 3.710938 -12.722656 3.984375 -12.484375 C 4.253906 -12.242188 4.390625 -11.894531 4.390625 -11.4375 C 4.390625 -10.507812 3.828125 -10.046875 2.703125 -10.046875 C 1.585938 -10.046875 1.03125 -10.507812 1.03125 -11.4375 Z M 1.03125 -11.4375 "/></g></g></g><g fill="#2b332c" fill-opacity="1"><g transform="translate(48.268242, 33.07029)"><g><path d="M 6.875 0 L 6.875 -5 C 6.875 -5.601562 6.785156 -6.054688 6.609375 -6.359375 C 6.429688 -6.671875 6.148438 -6.828125 5.765625 -6.828125 C 5.222656 -6.828125 4.832031 -6.613281 4.59375 -6.1875 C 4.363281 -5.769531 4.25 -5.039062 4.25 -4 L 4.25 0 L 1.09375 0 L 1.09375 -9.15625 L 3.46875 -9.15625 L 3.875 -8.015625 L 4.0625 -8.015625 C 4.320312 -8.453125 4.691406 -8.773438 5.171875 -8.984375 C 5.648438 -9.203125 6.195312 -9.3125 6.8125 -9.3125 C 7.832031 -9.3125 8.625 -9.015625 9.1875 -8.421875 C 9.75 -7.835938 10.03125 -7.015625 10.03125 -5.953125 L 10.03125 0 Z M 6.875 0 "/></g></g></g><g fill="#2b332c" fill-opacity="1"><g transform="translate(59.348528, 33.07029)"><g><path d="M 11.296875 -6.15625 C 11.296875 -4.1875 10.753906 -2.664062 9.671875 -1.59375 C 8.585938 -0.53125 7.0625 0 5.09375 0 L 1.28125 0 L 1.28125 -11.8125 L 5.359375 -11.8125 C 7.253906 -11.8125 8.71875 -11.328125 9.75 -10.359375 C 10.78125 -9.390625 11.296875 -7.988281 11.296875 -6.15625 Z M 7.984375 -6.046875 C 7.984375 -7.128906 7.769531 -7.929688 7.34375 -8.453125 C 6.914062 -8.972656 6.265625 -9.234375 5.390625 -9.234375 L 4.46875 -9.234375 L 4.46875 -2.625 L 5.171875 -2.625 C 6.148438 -2.625 6.863281 -2.90625 7.3125 -3.46875 C 7.757812 -4.03125 7.984375 -4.890625 7.984375 -6.046875 Z M 7.984375 -6.046875 "/></g></g></g><g fill="#2b332c" fill-opacity="1"><g transform="translate(71.486777, 33.07029)"><g><path d="M 5.515625 0.15625 C 3.984375 0.15625 2.796875 -0.242188 1.953125 -1.046875 C 1.109375 -1.859375 0.6875 -3.015625 0.6875 -4.515625 C 0.6875 -6.054688 1.078125 -7.238281 1.859375 -8.0625 C 2.640625 -8.894531 3.757812 -9.3125 5.21875 -9.3125 C 6.59375 -9.3125 7.65625 -8.953125 8.40625 -8.234375 C 9.15625 -7.515625 9.53125 -6.476562 9.53125 -5.125 L 9.53125 -3.71875 L 3.890625 -3.71875 C 3.910156 -3.207031 4.097656 -2.804688 4.453125 -2.515625 C 4.804688 -2.222656 5.285156 -2.078125 5.890625 -2.078125 C 6.441406 -2.078125 6.953125 -2.128906 7.421875 -2.234375 C 7.890625 -2.347656 8.394531 -2.53125 8.9375 -2.78125 L 8.9375 -0.515625 C 8.4375 -0.253906 7.921875 -0.078125 7.390625 0.015625 C 6.867188 0.109375 6.242188 0.15625 5.515625 0.15625 Z M 5.328125 -7.171875 C 4.953125 -7.171875 4.640625 -7.050781 4.390625 -6.8125 C 4.140625 -6.582031 3.992188 -6.21875 3.953125 -5.71875 L 6.671875 -5.71875 C 6.660156 -6.15625 6.535156 -6.503906 6.296875 -6.765625 C 6.054688 -7.035156 5.734375 -7.171875 5.328125 -7.171875 Z M 5.328125 -7.171875 "/></g></g></g><g fill="#2b332c" fill-opacity="1"><g transform="translate(81.711006, 33.07029)"><g><path d="M 3.484375 0 L 0 -9.15625 L 3.296875 -9.15625 L 4.84375 -3.734375 C 4.851562 -3.710938 4.863281 -3.664062 4.875 -3.59375 C 4.894531 -3.53125 4.910156 -3.453125 4.921875 -3.359375 C 4.941406 -3.273438 4.957031 -3.179688 4.96875 -3.078125 C 4.988281 -2.984375 5 -2.894531 5 -2.8125 L 5.046875 -2.8125 C 5.046875 -3.09375 5.09375 -3.394531 5.1875 -3.71875 L 6.8125 -9.15625 L 10.109375 -9.15625 L 6.609375 0 Z M 3.484375 0 "/></g></g></g></svg>